{
  "accessors": [
    {
      "bufferView": 2,
      "componentType": 5126,
      "count": 2615,
      "max": [
        2.912517547607422,
        3.4643778800964355,
        5.487232685089111
      ],
      "min": [
        -2.912517547607422,
        0.02062523365020752,
        -5.5776495933532715
      ],
      "type": "VEC3"
    },
    {
      "bufferView": 2,
      "byteOffset": 31380,
      "componentType": 5126,
      "count": 2615,
      "max": [
        1.0,
        0.9996726512908936,
        0.9999359250068665
      ],
      "min": [
        -1.0,
        -1.0,
        -1.0
      ],
      "type": "VEC3"
    },
    {
      "bufferView": 1,
      "componentType": 5126,
      "count": 2615,
      "max": [
        0.875,
        1.0000001192092896
      ],
      "min": [
        0.0,
        0.0
      ],
      "type": "VEC2"
    },
    {
      "bufferView": 0,
      "componentType": 5125,
      "count": 4176,
      "type": "SCALAR"
    },
    {
      "bufferView": 2,
      "byteOffset": 62760,
      "componentType": 5126,
      "count": 8,
      "max": [
        2.4054038524627686,
        1.8699512481689453,
        4.867395401000977
      ],
      "min": [
        -2.4054038524627686,
        1.2754793167114258,
        4.175617218017578
      ],
      "type": "VEC3"
    },
    {
      "bufferView": 2,
      "byteOffset": 62856,
      "componentType": 5126,
      "count": 8,
      "max": [
        0.4774688184261322,
        0.47200655937194824,
        0.7411028146743774
      ],
      "min": [
        -0.4774688184261322,
        0.47200655937194824,
        0.7411028146743774
      ],
      "type": "VEC3"
    },
    {
      "bufferView": 1,
      "byteOffset": 20920,
      "componentType": 5126,
      "count": 8,
      "max": [
        0.6144726872444153,
        1.0
      ],
      "min": [
        0.5467789173126221,
        1.0
      ],
      "type": "VEC2"
    },
    {
      "bufferView": 0,
      "byteOffset": 16704,
      "componentType": 5125,
      "count": 12,
      "type": "SCALAR"
    },
    {
      "bufferView": 2,
      "byteOffset": 62952,
      "componentType": 5126,
      "count": 776,
      "max": [
        3.0423290729522705,
        2.488619327545166,
        4.3442511558532715
      ],
      "min": [
        -3.0423290729522705,
        0.02062523365020752,
        -4.135522365570068
      ],
      "type": "VEC3"
    },
    {
      "bufferView": 2,
      "byteOffset": 72264,
      "componentType": 5126,
      "count": 776,
      "max": [
        0.9975594282150269,
        0.9807485938072205,
        0.9946292638778687
      ],
      "min": [
        -0.9975594282150269,
        -0.9807485938072205,
        -0.9827935099601746
      ],
      "type": "VEC3"
    },
    {
      "bufferView": 1,
      "byteOffset": 20984,
      "componentType": 5126,
      "count": 776,
      "max": [
        0.875,
        1.0
      ],
      "min": [
        0.0,
        0.0
      ],
      "type": "VEC2"
    },
    {
      "bufferView": 0,
      "byteOffset": 16752,
      "componentType": 5125,
      "count": 1164,
      "type": "SCALAR"
    },
    {
      "bufferView": 2,
      "byteOffset": 81576,
      "componentType": 5126,
      "count": 1960,
      "max": [
        3.02255916595459,
        2.61859130859375,
        3.871669292449951
      ],
      "min": [
        -3.02255916595459,
        0.29963892698287964,
        -3.720093250274658
      ],
      "type": "VEC3"
    },
    {
      "bufferView": 2,
      "byteOffset": 105096,
      "componentType": 5126,
      "count": 1960,
      "max": [
        0.9986491203308105,
        1.0,
        0.9647828936576843
      ],
      "min": [
        -0.9986491203308105,
        -1.0,
        -0.9647828936576843
      ],
      "type": "VEC3"
    },
    {
      "bufferView": 1,
      "byteOffset": 27192,
      "componentType": 5126,
      "count": 1960,
      "max": [
        0.5965985655784607,
        0.75
      ],
      "min": [
        0.0,
        0.0
      ],
      "type": "VEC2"
    },
    {
      "bufferView": 0,
      "byteOffset": 21408,
      "componentType": 5125,
      "count": 3012,
      "type": "SCALAR"
    },
    {
      "bufferView": 2,
      "byteOffset": 128616,
      "componentType": 5126,
      "count": 38,
      "max": [
        2.096608877182007,
        3.318714141845703,
        1.8133925199508667
      ],
      "min": [
        -2.096608877182007,
        2.451235771179199,
        -3.162382125854492
      ],
      "type": "VEC3"
    },
    {
      "bufferView": 2,
      "byteOffset": 129072,
      "componentType": 5126,
      "count": 38,
      "max": [
        0.928767204284668,
        0.899405300617218,
        0.4371156394481659
      ],
      "min": [
        -0.928767204284668,
        -0.899405300617218,
        -0.4371156394481659
      ],
      "type": "VEC3"
    },
    {
      "bufferView": 1,
      "byteOffset": 42872,
      "componentType": 5126,
      "count": 38,
      "max": [
        0.875,
        0.6673385500907898
      ],
      "min": [
        0.6249999403953552,
        0.09167078137397766
      ],
      "type": "VEC2"
    },
    {
      "bufferView": 0,
      "byteOffset": 33456,
      "componentType": 5125,
      "count": 60,
      "type": "SCALAR"
    },
    {
      "bufferView": 2,
      "byteOffset": 129528,
      "componentType": 5126,
      "count": 32,
      "max": [
        2.0668506622314453,
        1.787790298461914,
        5.345413684844971
      ],
      "min": [
        -2.0668506622314453,
        0.4965234398841858,
        4.6609416007995605
      ],
      "type": "VEC3"
    },
    {
      "bufferView": 2,
      "byteOffset": 129912,
      "componentType": 5126,
      "count": 32,
      "max": [
        0.3682043254375458,
        0.31790393590927124,
        0.9994469285011292
      ],
      "min": [
        -0.3682042360305786,
        -0.01693267934024334,
        0.8737063407897949
      ],
      "type": "VEC3"
    },
    {
      "bufferView": 1,
      "byteOffset": 43176,
      "componentType": 5126,
      "count": 32,
      "max": [
        0.625,
        1.0
      ],
      "min": [
        0.375,
        0.875
      ],
      "type": "VEC2"
    },
    {
      "bufferView": 0,
      "byteOffset": 33696,
      "componentType": 5125,
      "count": 48,
      "type": "SCALAR"
    }
  ],
  "asset": {
    "extras": {
      "author": "suzanduran (https://sketchfab.com/suzanduran)",
      "license": "CC-BY-4.0 (http://creativecommons.org/licenses/by/4.0/)",
      "source": "https://sketchfab.com/3d-models/low-poly-red-sport-car-55b1259dbac648759aebe43c82ef156b",
      "title": "Low Poly Red Sport Car"
    },
    "generator": "Sketchfab-14.15.0",
    "version": "2.0"
  },
  "bufferViews": [
    {
      "buffer": 0,
      "byteLength": 33888,
      "name": "floatBufferViews",
      "target": 34963
    },
    {
      "buffer": 0,
      "byteLength": 43432,
      "byteOffset": 33888,
      "byteStride": 8,
      "name": "floatBufferViews",
      "target": 34962
    },
    {
      "buffer": 0,
      "byteLength": 130296,
      "byteOffset": 77320,
      "byteStride": 12,
      "name": "floatBufferViews",
      "target": 34962
    }
  ],
  "buffers": [
    {
      "byteLength": 207616,
      "uri": "scene.bin"
    }
  ],
  "materials": [
    {
      "doubleSided": true,
      "name": "Material.002",
      "pbrMetallicRoughness": {
        "baseColorFactor": [
          0.685957,
          0.00540049,
          0.0152367,
          1.0
        ],
        "metallicFactor": 0.0,
        "roughnessFactor": 0.5
      }
    },
    {
      "doubleSided": true,
      "emissiveFactor": [
        0.472811,
        0.9150199999999999,
        1.0
      ],
      "name": "Material.003"
    },
    {
      "doubleSided": true,
      "name": "Material.004",
      "pbrMetallicRoughness": {
        "baseColorFactor": [
          0.0134105,
          0.0134105,
          0.0134105,
          1.0
        ],
        "metallicFactor": 0.0,
        "roughnessFactor": 0.727848
      }
    },
    {
      "doubleSided": true,
      "name": "Material.005",
      "pbrMetallicRoughness": {
        "baseColorFactor": [
          0.303198,
          0.303198,
          0.303198,
          1.0
        ],
        "metallicFactor": 0.0,
        "roughnessFactor": 0.272152
      }
    },
    {
      "doubleSided": true,
      "name": "Material.006",
      "pbrMetallicRoughness": {
        "baseColorFactor": [
          0.305221,
          0.710553,
          0.8,
          1.0
        ],
        "metallicFactor": 0.0,
        "roughnessFactor": 0.5
      }
    },
    {
      "doubleSided": true,
      "name": "Material.007",
      "pbrMetallicRoughness": {
        "baseColorFactor": [
          0.03741,
          0.03741,
          0.03741,
          1.0
        ],
        "metallicFactor": 0.0,
        "roughnessFactor": 0.5
      }
    }
  ],
  "meshes": [
    {
      "name": "Object_0",
      "primitives": [
        {
          "attributes": {
            "NORMAL": 1,
            "POSITION": 0,
            "TEXCOORD_0": 2
          },
          "indices": 3,
          "material": 0,
          "mode": 4
        }
      ]
    },
    {
      "name": "Object_1",
      "primitives": [
        {
          "attributes": {
            "NORMAL": 5,
            "POSITION": 4,
            "TEXCOORD_0": 6
          },
          "indices": 7,
          "material": 1,
          "mode": 4
        }
      ]
    },
    {
      "name": "Object_2",
      "primitives": [
        {
          "attributes": {
            "NORMAL": 9,
            "POSITION": 8,
            "TEXCOORD_0": 10
          },
          "indices": 11,
          "material": 2,
          "mode": 4
        }
      ]
    },
    {
      "name": "Object_3",
      "primitives": [
        {
          "attributes": {
            "NORMAL": 13,
            "POSITION": 12,
            "TEXCOORD_0": 14
          },
          "indices": 15,
          "material": 3,
          "mode": 4
        }
      ]
    },
    {
      "name": "Object_4",
      "primitives": [
        {
          "attributes": {
            "NORMAL": 17,
            "POSITION": 16,
            "TEXCOORD_0": 18
          },
          "indices": 19,
          "material": 4,
          "mode": 4
        }
      ]
    },
    {
      "name": "Object_5",
      "primitives": [
        {
          "attributes": {
            "NORMAL": 21,
            "POSITION": 20,
            "TEXCOORD_0": 22
          },
          "indices": 23,
          "material": 5,
          "mode": 4
        }
      ]
    }
  ],
  "nodes": [
    {
      "children": [
        1
      ],
      "matrix": [
        1.0,
        0.0,
        0.0,
        0.0,
        0.0,
        2.220446049250313e-16,
        -1.0,
        0.0,
        0.0,
        1.0,
        2.220446049250313e-16,
        0.0,
        0.0,
        0.0,
        0.0,
        1.0
      ],
      "name": "Sketchfab_model"
    },
    {
      "children": [
        2
      ],
      "name": "root"
    },
    {
      "children": [
        3
      ],
      "matrix": [
        1.0,
        0.0,
        0.0,
        0.0,
        0.0,
        2.220446049250313e-16,
        1.0,
        0.0,
        0.0,
        -1.0,
        2.220446049250313e-16,
        0.0,
        0.0,
        0.0,
        0.0,
        1.0
      ],
      "name": "GLTF_SceneRootNode"
    },
    {
      "children": [
        4,
        5,
        6,
        7,
        8,
        9
      ],
      "matrix": [
        0.40003007650375366,
        0.0,
        0.0,
        0.0,
        0.0,
        0.40003007650375366,
        0.0,
        0.0,
        0.0,
        0.0,
        0.40003007650375366,
        0.0,
        0.0,
        0.0,
        0.0,
        1.0
      ],
      "name": "Cube.001_1"
    },
    {
      "mesh": 0,
      "name": "Object_4"
    },
    {
      "mesh": 1,
      "name": "Object_5"
    },
    {
      "mesh": 2,
      "name": "Object_6"
    },
    {
      "mesh": 3,
      "name": "Object_7"
    },
    {
      "mesh": 4,
      "name": "Object_8"
    },
    {
      "mesh": 5,
      "name": "Object_9"
    }
  ],
  "scene": 0,
  "scenes": [
    {
      "name": "Sketchfab_Scene",
      "nodes": [
        0
      ]
    }
  ]
}
